<mxfile host="65bd71144e" pages="2">
    <diagram id="BNfnJqiRGmGISv7vs08x" name="ERD">
        <mxGraphModel dx="1294" dy="262" grid="1" gridSize="10" guides="1" tooltips="1" connect="1" arrows="1" fold="1" page="0" pageScale="1" pageWidth="827" pageHeight="1169" math="0" shadow="0">
            <root>
                <mxCell id="0"/>
                <mxCell id="1" parent="0"/>
                <mxCell id="jUELmZq5ZQEsB_SD1xl3-3" value="Superhero" style="rounded=0;whiteSpace=wrap;html=1;" parent="1" vertex="1">
                    <mxGeometry x="220" y="810" width="120" height="60" as="geometry"/>
                </mxCell>
                <mxCell id="jUELmZq5ZQEsB_SD1xl3-4" value="Alias" style="rounded=0;whiteSpace=wrap;html=1;" parent="1" vertex="1">
                    <mxGeometry x="480" y="590" width="120" height="60" as="geometry"/>
                </mxCell>
                <mxCell id="jUELmZq5ZQEsB_SD1xl3-6" style="edgeStyle=orthogonalEdgeStyle;rounded=0;orthogonalLoop=1;jettySize=auto;html=1;exitX=0.5;exitY=0;exitDx=0;exitDy=0;entryX=0;entryY=0.5;entryDx=0;entryDy=0;endArrow=ERmany;endFill=0;" parent="1" source="jUELmZq5ZQEsB_SD1xl3-5" target="jUELmZq5ZQEsB_SD1xl3-4" edge="1">
                    <mxGeometry relative="1" as="geometry"/>
                </mxCell>
                <mxCell id="jUELmZq5ZQEsB_SD1xl3-7" style="edgeStyle=orthogonalEdgeStyle;rounded=0;orthogonalLoop=1;jettySize=auto;html=1;exitX=0.5;exitY=1;exitDx=0;exitDy=0;entryX=1;entryY=0.5;entryDx=0;entryDy=0;endArrow=ERone;endFill=0;" parent="1" source="jUELmZq5ZQEsB_SD1xl3-5" target="jUELmZq5ZQEsB_SD1xl3-3" edge="1">
                    <mxGeometry relative="1" as="geometry"/>
                </mxCell>
                <mxCell id="jUELmZq5ZQEsB_SD1xl3-5" value="has" style="rhombus;whiteSpace=wrap;html=1;" parent="1" vertex="1">
                    <mxGeometry x="370" y="690" width="80" height="80" as="geometry"/>
                </mxCell>
                <mxCell id="jUELmZq5ZQEsB_SD1xl3-8" value="Alignment" style="rounded=0;whiteSpace=wrap;html=1;" parent="1" vertex="1">
                    <mxGeometry x="-40" y="590" width="120" height="60" as="geometry"/>
                </mxCell>
                <mxCell id="jUELmZq5ZQEsB_SD1xl3-10" style="edgeStyle=orthogonalEdgeStyle;rounded=0;orthogonalLoop=1;jettySize=auto;html=1;exitX=0.5;exitY=1;exitDx=0;exitDy=0;entryX=0;entryY=0.5;entryDx=0;entryDy=0;endArrow=ERmany;endFill=0;" parent="1" source="jUELmZq5ZQEsB_SD1xl3-9" target="jUELmZq5ZQEsB_SD1xl3-3" edge="1">
                    <mxGeometry relative="1" as="geometry"/>
                </mxCell>
                <mxCell id="jUELmZq5ZQEsB_SD1xl3-11" style="edgeStyle=orthogonalEdgeStyle;rounded=0;orthogonalLoop=1;jettySize=auto;html=1;exitX=0.5;exitY=0;exitDx=0;exitDy=0;entryX=1;entryY=0.5;entryDx=0;entryDy=0;endArrow=ERone;endFill=0;" parent="1" source="jUELmZq5ZQEsB_SD1xl3-9" target="jUELmZq5ZQEsB_SD1xl3-8" edge="1">
                    <mxGeometry relative="1" as="geometry"/>
                </mxCell>
                <mxCell id="jUELmZq5ZQEsB_SD1xl3-9" value="has" style="rhombus;whiteSpace=wrap;html=1;" parent="1" vertex="1">
                    <mxGeometry x="110" y="690" width="80" height="80" as="geometry"/>
                </mxCell>
                <mxCell id="jUELmZq5ZQEsB_SD1xl3-12" value="publisher" style="rounded=0;whiteSpace=wrap;html=1;" parent="1" vertex="1">
                    <mxGeometry x="220" y="590" width="120" height="60" as="geometry"/>
                </mxCell>
                <mxCell id="jUELmZq5ZQEsB_SD1xl3-14" style="edgeStyle=orthogonalEdgeStyle;rounded=0;orthogonalLoop=1;jettySize=auto;html=1;exitX=0.5;exitY=1;exitDx=0;exitDy=0;entryX=0.5;entryY=0;entryDx=0;entryDy=0;endArrow=ERmany;endFill=0;" parent="1" source="jUELmZq5ZQEsB_SD1xl3-13" target="jUELmZq5ZQEsB_SD1xl3-3" edge="1">
                    <mxGeometry relative="1" as="geometry"/>
                </mxCell>
                <mxCell id="jUELmZq5ZQEsB_SD1xl3-15" style="edgeStyle=orthogonalEdgeStyle;rounded=0;orthogonalLoop=1;jettySize=auto;html=1;exitX=0.5;exitY=0;exitDx=0;exitDy=0;entryX=0.5;entryY=1;entryDx=0;entryDy=0;endArrow=ERone;endFill=0;" parent="1" source="jUELmZq5ZQEsB_SD1xl3-13" target="jUELmZq5ZQEsB_SD1xl3-12" edge="1">
                    <mxGeometry relative="1" as="geometry"/>
                </mxCell>
                <mxCell id="jUELmZq5ZQEsB_SD1xl3-13" value="has" style="rhombus;whiteSpace=wrap;html=1;" parent="1" vertex="1">
                    <mxGeometry x="240" y="690" width="80" height="80" as="geometry"/>
                </mxCell>
                <mxCell id="jUELmZq5ZQEsB_SD1xl3-27" style="rounded=0;orthogonalLoop=1;jettySize=auto;html=1;exitX=1;exitY=0.5;exitDx=0;exitDy=0;entryX=0;entryY=0.75;entryDx=0;entryDy=0;endArrow=none;endFill=0;" parent="1" source="jUELmZq5ZQEsB_SD1xl3-16" target="jUELmZq5ZQEsB_SD1xl3-3" edge="1">
                    <mxGeometry relative="1" as="geometry"/>
                </mxCell>
                <mxCell id="jUELmZq5ZQEsB_SD1xl3-16" value="&lt;u&gt;superhero_id&lt;/u&gt;" style="ellipse;whiteSpace=wrap;html=1;" parent="1" vertex="1">
                    <mxGeometry x="-120" y="880" width="120" height="80" as="geometry"/>
                </mxCell>
                <mxCell id="jUELmZq5ZQEsB_SD1xl3-28" style="edgeStyle=none;rounded=0;orthogonalLoop=1;jettySize=auto;html=1;exitX=1;exitY=0;exitDx=0;exitDy=0;entryX=0;entryY=1;entryDx=0;entryDy=0;endArrow=none;endFill=0;" parent="1" source="jUELmZq5ZQEsB_SD1xl3-18" target="jUELmZq5ZQEsB_SD1xl3-3" edge="1">
                    <mxGeometry relative="1" as="geometry"/>
                </mxCell>
                <mxCell id="jUELmZq5ZQEsB_SD1xl3-18" value="Intelligence" style="ellipse;whiteSpace=wrap;html=1;" parent="1" vertex="1">
                    <mxGeometry x="-80" y="980" width="120" height="80" as="geometry"/>
                </mxCell>
                <mxCell id="jUELmZq5ZQEsB_SD1xl3-29" style="edgeStyle=none;rounded=0;orthogonalLoop=1;jettySize=auto;html=1;exitX=1;exitY=0;exitDx=0;exitDy=0;entryX=0.25;entryY=1;entryDx=0;entryDy=0;endArrow=none;endFill=0;" parent="1" source="jUELmZq5ZQEsB_SD1xl3-19" target="jUELmZq5ZQEsB_SD1xl3-3" edge="1">
                    <mxGeometry relative="1" as="geometry"/>
                </mxCell>
                <mxCell id="jUELmZq5ZQEsB_SD1xl3-19" value="Strength" style="ellipse;whiteSpace=wrap;html=1;" parent="1" vertex="1">
                    <mxGeometry x="-30" y="1070" width="120" height="80" as="geometry"/>
                </mxCell>
                <mxCell id="jUELmZq5ZQEsB_SD1xl3-30" style="edgeStyle=none;rounded=0;orthogonalLoop=1;jettySize=auto;html=1;exitX=0.5;exitY=0;exitDx=0;exitDy=0;endArrow=none;endFill=0;" parent="1" source="jUELmZq5ZQEsB_SD1xl3-20" edge="1">
                    <mxGeometry relative="1" as="geometry">
                        <mxPoint x="250" y="870" as="targetPoint"/>
                    </mxGeometry>
                </mxCell>
                <mxCell id="jUELmZq5ZQEsB_SD1xl3-20" value="Speed" style="ellipse;whiteSpace=wrap;html=1;" parent="1" vertex="1">
                    <mxGeometry x="50" y="1160" width="120" height="80" as="geometry"/>
                </mxCell>
                <mxCell id="jUELmZq5ZQEsB_SD1xl3-31" style="edgeStyle=none;rounded=0;orthogonalLoop=1;jettySize=auto;html=1;exitX=0.5;exitY=0;exitDx=0;exitDy=0;entryX=0.5;entryY=1;entryDx=0;entryDy=0;endArrow=none;endFill=0;" parent="1" source="jUELmZq5ZQEsB_SD1xl3-21" target="jUELmZq5ZQEsB_SD1xl3-3" edge="1">
                    <mxGeometry relative="1" as="geometry"/>
                </mxCell>
                <mxCell id="jUELmZq5ZQEsB_SD1xl3-21" value="Durability" style="ellipse;whiteSpace=wrap;html=1;" parent="1" vertex="1">
                    <mxGeometry x="150" y="1230" width="120" height="80" as="geometry"/>
                </mxCell>
                <mxCell id="jUELmZq5ZQEsB_SD1xl3-32" style="edgeStyle=none;rounded=0;orthogonalLoop=1;jettySize=auto;html=1;exitX=0.5;exitY=0;exitDx=0;exitDy=0;entryX=0.5;entryY=1;entryDx=0;entryDy=0;endArrow=none;endFill=0;" parent="1" source="jUELmZq5ZQEsB_SD1xl3-22" target="jUELmZq5ZQEsB_SD1xl3-3" edge="1">
                    <mxGeometry relative="1" as="geometry"/>
                </mxCell>
                <mxCell id="jUELmZq5ZQEsB_SD1xl3-22" value="Power" style="ellipse;whiteSpace=wrap;html=1;" parent="1" vertex="1">
                    <mxGeometry x="290" y="1230" width="120" height="80" as="geometry"/>
                </mxCell>
                <mxCell id="jUELmZq5ZQEsB_SD1xl3-33" style="edgeStyle=none;rounded=0;orthogonalLoop=1;jettySize=auto;html=1;exitX=0.5;exitY=0;exitDx=0;exitDy=0;entryX=0.75;entryY=1;entryDx=0;entryDy=0;endArrow=none;endFill=0;" parent="1" source="jUELmZq5ZQEsB_SD1xl3-23" target="jUELmZq5ZQEsB_SD1xl3-3" edge="1">
                    <mxGeometry relative="1" as="geometry"/>
                </mxCell>
                <mxCell id="jUELmZq5ZQEsB_SD1xl3-23" value="Combat" style="ellipse;whiteSpace=wrap;html=1;" parent="1" vertex="1">
                    <mxGeometry x="390" y="1160" width="120" height="80" as="geometry"/>
                </mxCell>
                <mxCell id="jUELmZq5ZQEsB_SD1xl3-34" style="edgeStyle=none;rounded=0;orthogonalLoop=1;jettySize=auto;html=1;exitX=0;exitY=0;exitDx=0;exitDy=0;endArrow=none;endFill=0;" parent="1" source="jUELmZq5ZQEsB_SD1xl3-24" edge="1">
                    <mxGeometry relative="1" as="geometry">
                        <mxPoint x="310" y="870" as="targetPoint"/>
                    </mxGeometry>
                </mxCell>
                <mxCell id="jUELmZq5ZQEsB_SD1xl3-24" value="Image" style="ellipse;whiteSpace=wrap;html=1;" parent="1" vertex="1">
                    <mxGeometry x="470" y="1070" width="120" height="80" as="geometry"/>
                </mxCell>
                <mxCell id="jUELmZq5ZQEsB_SD1xl3-35" style="edgeStyle=none;rounded=0;orthogonalLoop=1;jettySize=auto;html=1;exitX=0;exitY=0;exitDx=0;exitDy=0;entryX=1;entryY=1;entryDx=0;entryDy=0;endArrow=none;endFill=0;" parent="1" source="jUELmZq5ZQEsB_SD1xl3-25" target="jUELmZq5ZQEsB_SD1xl3-3" edge="1">
                    <mxGeometry relative="1" as="geometry"/>
                </mxCell>
                <mxCell id="jUELmZq5ZQEsB_SD1xl3-25" value="Publisher_id" style="ellipse;whiteSpace=wrap;html=1;" parent="1" vertex="1">
                    <mxGeometry x="520" y="980" width="120" height="80" as="geometry"/>
                </mxCell>
                <mxCell id="jUELmZq5ZQEsB_SD1xl3-36" style="edgeStyle=none;rounded=0;orthogonalLoop=1;jettySize=auto;html=1;exitX=0;exitY=0.5;exitDx=0;exitDy=0;entryX=1;entryY=0.75;entryDx=0;entryDy=0;endArrow=none;endFill=0;" parent="1" source="jUELmZq5ZQEsB_SD1xl3-26" target="jUELmZq5ZQEsB_SD1xl3-3" edge="1">
                    <mxGeometry relative="1" as="geometry"/>
                </mxCell>
                <mxCell id="jUELmZq5ZQEsB_SD1xl3-26" value="Alignment_id" style="ellipse;whiteSpace=wrap;html=1;" parent="1" vertex="1">
                    <mxGeometry x="560" y="880" width="120" height="80" as="geometry"/>
                </mxCell>
                <mxCell id="jUELmZq5ZQEsB_SD1xl3-41" style="edgeStyle=none;rounded=0;orthogonalLoop=1;jettySize=auto;html=1;exitX=1;exitY=1;exitDx=0;exitDy=0;entryX=0;entryY=0.5;entryDx=0;entryDy=0;endArrow=none;endFill=0;" parent="1" source="jUELmZq5ZQEsB_SD1xl3-37" target="jUELmZq5ZQEsB_SD1xl3-8" edge="1">
                    <mxGeometry relative="1" as="geometry"/>
                </mxCell>
                <mxCell id="jUELmZq5ZQEsB_SD1xl3-37" value="&lt;u&gt;Alignment_id&lt;/u&gt;" style="ellipse;whiteSpace=wrap;html=1;" parent="1" vertex="1">
                    <mxGeometry x="-200" y="510" width="120" height="80" as="geometry"/>
                </mxCell>
                <mxCell id="jUELmZq5ZQEsB_SD1xl3-39" style="edgeStyle=none;rounded=0;orthogonalLoop=1;jettySize=auto;html=1;exitX=0.5;exitY=0;exitDx=0;exitDy=0;entryX=0.5;entryY=1;entryDx=0;entryDy=0;endArrow=none;endFill=0;" parent="1" source="jUELmZq5ZQEsB_SD1xl3-38" target="jUELmZq5ZQEsB_SD1xl3-3" edge="1">
                    <mxGeometry relative="1" as="geometry"/>
                </mxCell>
                <mxCell id="jUELmZq5ZQEsB_SD1xl3-38" value="Name" style="ellipse;whiteSpace=wrap;html=1;" parent="1" vertex="1">
                    <mxGeometry x="220" y="1330" width="120" height="80" as="geometry"/>
                </mxCell>
                <mxCell id="jUELmZq5ZQEsB_SD1xl3-42" style="edgeStyle=none;rounded=0;orthogonalLoop=1;jettySize=auto;html=1;exitX=1;exitY=0;exitDx=0;exitDy=0;endArrow=none;endFill=0;" parent="1" source="jUELmZq5ZQEsB_SD1xl3-40" edge="1">
                    <mxGeometry relative="1" as="geometry">
                        <mxPoint x="-40" y="620" as="targetPoint"/>
                    </mxGeometry>
                </mxCell>
                <mxCell id="jUELmZq5ZQEsB_SD1xl3-40" value="Name" style="ellipse;whiteSpace=wrap;html=1;" parent="1" vertex="1">
                    <mxGeometry x="-200" y="650" width="120" height="80" as="geometry"/>
                </mxCell>
                <mxCell id="jUELmZq5ZQEsB_SD1xl3-46" style="edgeStyle=none;rounded=0;orthogonalLoop=1;jettySize=auto;html=1;exitX=0.5;exitY=1;exitDx=0;exitDy=0;entryX=0.25;entryY=0;entryDx=0;entryDy=0;endArrow=none;endFill=0;" parent="1" source="jUELmZq5ZQEsB_SD1xl3-43" target="jUELmZq5ZQEsB_SD1xl3-12" edge="1">
                    <mxGeometry relative="1" as="geometry"/>
                </mxCell>
                <mxCell id="jUELmZq5ZQEsB_SD1xl3-43" value="&lt;u&gt;Publisher_id&lt;/u&gt;" style="ellipse;whiteSpace=wrap;html=1;" parent="1" vertex="1">
                    <mxGeometry x="150" y="440" width="120" height="80" as="geometry"/>
                </mxCell>
                <mxCell id="jUELmZq5ZQEsB_SD1xl3-45" style="edgeStyle=none;rounded=0;orthogonalLoop=1;jettySize=auto;html=1;exitX=0.5;exitY=1;exitDx=0;exitDy=0;entryX=0.75;entryY=0;entryDx=0;entryDy=0;endArrow=none;endFill=0;" parent="1" source="jUELmZq5ZQEsB_SD1xl3-44" target="jUELmZq5ZQEsB_SD1xl3-12" edge="1">
                    <mxGeometry relative="1" as="geometry"/>
                </mxCell>
                <mxCell id="jUELmZq5ZQEsB_SD1xl3-44" value="Name" style="ellipse;whiteSpace=wrap;html=1;" parent="1" vertex="1">
                    <mxGeometry x="290" y="440" width="120" height="80" as="geometry"/>
                </mxCell>
                <mxCell id="jUELmZq5ZQEsB_SD1xl3-51" style="edgeStyle=none;rounded=0;orthogonalLoop=1;jettySize=auto;html=1;exitX=0;exitY=0.5;exitDx=0;exitDy=0;endArrow=none;endFill=0;" parent="1" source="jUELmZq5ZQEsB_SD1xl3-47" edge="1">
                    <mxGeometry relative="1" as="geometry">
                        <mxPoint x="600" y="620" as="targetPoint"/>
                    </mxGeometry>
                </mxCell>
                <mxCell id="jUELmZq5ZQEsB_SD1xl3-47" value="Name" style="ellipse;whiteSpace=wrap;html=1;" parent="1" vertex="1">
                    <mxGeometry x="640" y="580" width="120" height="80" as="geometry"/>
                </mxCell>
                <mxCell id="jUELmZq5ZQEsB_SD1xl3-52" style="edgeStyle=none;rounded=0;orthogonalLoop=1;jettySize=auto;html=1;exitX=0;exitY=0;exitDx=0;exitDy=0;endArrow=none;endFill=0;" parent="1" source="jUELmZq5ZQEsB_SD1xl3-48" edge="1">
                    <mxGeometry relative="1" as="geometry">
                        <mxPoint x="600" y="620" as="targetPoint"/>
                    </mxGeometry>
                </mxCell>
                <mxCell id="jUELmZq5ZQEsB_SD1xl3-48" value="superhero_id" style="ellipse;whiteSpace=wrap;html=1;" parent="1" vertex="1">
                    <mxGeometry x="640" y="680" width="120" height="80" as="geometry"/>
                </mxCell>
                <mxCell id="jUELmZq5ZQEsB_SD1xl3-50" style="edgeStyle=none;rounded=0;orthogonalLoop=1;jettySize=auto;html=1;exitX=0;exitY=1;exitDx=0;exitDy=0;entryX=1;entryY=0.5;entryDx=0;entryDy=0;endArrow=none;endFill=0;" parent="1" source="jUELmZq5ZQEsB_SD1xl3-49" target="jUELmZq5ZQEsB_SD1xl3-4" edge="1">
                    <mxGeometry relative="1" as="geometry"/>
                </mxCell>
                <mxCell id="jUELmZq5ZQEsB_SD1xl3-49" value="&lt;u&gt;alias_id&lt;/u&gt;" style="ellipse;whiteSpace=wrap;html=1;" parent="1" vertex="1">
                    <mxGeometry x="640" y="480" width="120" height="80" as="geometry"/>
                </mxCell>
                <mxCell id="jUELmZq5ZQEsB_SD1xl3-53" value="User" style="rounded=0;whiteSpace=wrap;html=1;" parent="1" vertex="1">
                    <mxGeometry x="220" y="1550" width="120" height="60" as="geometry"/>
                </mxCell>
                <mxCell id="jUELmZq5ZQEsB_SD1xl3-59" style="edgeStyle=none;rounded=0;orthogonalLoop=1;jettySize=auto;html=1;exitX=1;exitY=0.5;exitDx=0;exitDy=0;entryX=0;entryY=0.5;entryDx=0;entryDy=0;endArrow=none;endFill=0;" parent="1" source="jUELmZq5ZQEsB_SD1xl3-54" target="jUELmZq5ZQEsB_SD1xl3-53" edge="1">
                    <mxGeometry relative="1" as="geometry"/>
                </mxCell>
                <mxCell id="jUELmZq5ZQEsB_SD1xl3-54" value="&lt;u&gt;email&lt;/u&gt;" style="ellipse;whiteSpace=wrap;html=1;" parent="1" vertex="1">
                    <mxGeometry x="-40" y="1540" width="120" height="80" as="geometry"/>
                </mxCell>
                <mxCell id="jUELmZq5ZQEsB_SD1xl3-60" style="edgeStyle=none;rounded=0;orthogonalLoop=1;jettySize=auto;html=1;exitX=1;exitY=0;exitDx=0;exitDy=0;entryX=0.25;entryY=1;entryDx=0;entryDy=0;endArrow=none;endFill=0;" parent="1" source="jUELmZq5ZQEsB_SD1xl3-55" target="jUELmZq5ZQEsB_SD1xl3-53" edge="1">
                    <mxGeometry relative="1" as="geometry"/>
                </mxCell>
                <mxCell id="jUELmZq5ZQEsB_SD1xl3-55" value="password" style="ellipse;whiteSpace=wrap;html=1;" parent="1" vertex="1">
                    <mxGeometry x="40" y="1680" width="120" height="80" as="geometry"/>
                </mxCell>
                <mxCell id="jUELmZq5ZQEsB_SD1xl3-61" style="edgeStyle=none;rounded=0;orthogonalLoop=1;jettySize=auto;html=1;exitX=0.5;exitY=0;exitDx=0;exitDy=0;entryX=0.5;entryY=1;entryDx=0;entryDy=0;endArrow=none;endFill=0;" parent="1" source="jUELmZq5ZQEsB_SD1xl3-56" target="jUELmZq5ZQEsB_SD1xl3-53" edge="1">
                    <mxGeometry relative="1" as="geometry"/>
                </mxCell>
                <mxCell id="jUELmZq5ZQEsB_SD1xl3-56" value="name" style="ellipse;whiteSpace=wrap;html=1;" parent="1" vertex="1">
                    <mxGeometry x="220" y="1770" width="120" height="80" as="geometry"/>
                </mxCell>
                <mxCell id="jUELmZq5ZQEsB_SD1xl3-62" style="edgeStyle=none;rounded=0;orthogonalLoop=1;jettySize=auto;html=1;exitX=0;exitY=0;exitDx=0;exitDy=0;entryX=0.75;entryY=1;entryDx=0;entryDy=0;endArrow=none;endFill=0;" parent="1" source="jUELmZq5ZQEsB_SD1xl3-57" target="jUELmZq5ZQEsB_SD1xl3-53" edge="1">
                    <mxGeometry relative="1" as="geometry"/>
                </mxCell>
                <mxCell id="jUELmZq5ZQEsB_SD1xl3-57" value="played" style="ellipse;whiteSpace=wrap;html=1;" parent="1" vertex="1">
                    <mxGeometry x="400" y="1680" width="120" height="80" as="geometry"/>
                </mxCell>
                <mxCell id="jUELmZq5ZQEsB_SD1xl3-63" style="edgeStyle=none;rounded=0;orthogonalLoop=1;jettySize=auto;html=1;exitX=0;exitY=0.5;exitDx=0;exitDy=0;entryX=1;entryY=0.5;entryDx=0;entryDy=0;endArrow=none;endFill=0;" parent="1" source="jUELmZq5ZQEsB_SD1xl3-58" target="jUELmZq5ZQEsB_SD1xl3-53" edge="1">
                    <mxGeometry relative="1" as="geometry"/>
                </mxCell>
                <mxCell id="jUELmZq5ZQEsB_SD1xl3-58" value="played" style="ellipse;whiteSpace=wrap;html=1;" parent="1" vertex="1">
                    <mxGeometry x="480" y="1540" width="120" height="80" as="geometry"/>
                </mxCell>
            </root>
        </mxGraphModel>
    </diagram>
    <diagram id="yHjtAyqY1RCScKP_3xZN" name="RS">
        <mxGraphModel dx="1294" dy="1062" grid="1" gridSize="10" guides="1" tooltips="1" connect="1" arrows="1" fold="1" page="0" pageScale="1" pageWidth="827" pageHeight="1169" math="0" shadow="0">
            <root>
                <mxCell id="pJeg2BePFzrce_1qTwgO-0"/>
                <mxCell id="pJeg2BePFzrce_1qTwgO-1" parent="pJeg2BePFzrce_1qTwgO-0"/>
                <mxCell id="89xxAsQIkANff5ti2UOI-5" style="edgeStyle=orthogonalEdgeStyle;rounded=0;orthogonalLoop=1;jettySize=auto;html=1;exitX=0.828;exitY=1.081;exitDx=0;exitDy=0;entryX=0.094;entryY=0.033;entryDx=0;entryDy=0;entryPerimeter=0;endArrow=classic;endFill=1;exitPerimeter=0;" parent="pJeg2BePFzrce_1qTwgO-1" source="xt36zAMbikyAglLqH1Wb-0" target="89xxAsQIkANff5ti2UOI-1" edge="1">
                    <mxGeometry relative="1" as="geometry"/>
                </mxCell>
                <mxCell id="89xxAsQIkANff5ti2UOI-6" style="edgeStyle=orthogonalEdgeStyle;rounded=0;orthogonalLoop=1;jettySize=auto;html=1;exitX=0.939;exitY=1.129;exitDx=0;exitDy=0;entryX=0.096;entryY=-0.014;entryDx=0;entryDy=0;entryPerimeter=0;endArrow=classic;endFill=1;exitPerimeter=0;" parent="pJeg2BePFzrce_1qTwgO-1" source="xt36zAMbikyAglLqH1Wb-0" target="89xxAsQIkANff5ti2UOI-0" edge="1">
                    <mxGeometry relative="1" as="geometry">
                        <Array as="points">
                            <mxPoint x="300" y="130"/>
                            <mxPoint x="-232" y="130"/>
                        </Array>
                    </mxGeometry>
                </mxCell>
                <mxCell id="xt36zAMbikyAglLqH1Wb-0" value="superhero [&lt;u&gt;superhero_id&lt;/u&gt;, name, intelligence, strength, speed, durability, power, combat, image, publisher_id, alignment_id]" style="text;html=1;strokeColor=none;fillColor=none;align=left;verticalAlign=middle;whiteSpace=wrap;rounded=0;" parent="pJeg2BePFzrce_1qTwgO-1" vertex="1">
                    <mxGeometry x="-320" width="660" height="20" as="geometry"/>
                </mxCell>
                <mxCell id="89xxAsQIkANff5ti2UOI-0" value="alignment [&lt;u&gt;alignment_id&lt;/u&gt;, name]" style="text;html=1;strokeColor=none;fillColor=none;align=left;verticalAlign=middle;whiteSpace=wrap;rounded=0;" parent="pJeg2BePFzrce_1qTwgO-1" vertex="1">
                    <mxGeometry x="-320" y="160" width="920" height="20" as="geometry"/>
                </mxCell>
                <mxCell id="89xxAsQIkANff5ti2UOI-1" value="publisher [&lt;u&gt;publilsher_id,&amp;nbsp;&lt;/u&gt;name]" style="text;html=1;strokeColor=none;fillColor=none;align=left;verticalAlign=middle;whiteSpace=wrap;rounded=0;" parent="pJeg2BePFzrce_1qTwgO-1" vertex="1">
                    <mxGeometry x="-320" y="80" width="920" height="20" as="geometry"/>
                </mxCell>
                <mxCell id="89xxAsQIkANff5ti2UOI-3" style="edgeStyle=orthogonalEdgeStyle;rounded=0;orthogonalLoop=1;jettySize=auto;html=1;exitX=0.75;exitY=1;exitDx=0;exitDy=0;endArrow=classic;endFill=1;entryX=0.142;entryY=-0.086;entryDx=0;entryDy=0;entryPerimeter=0;" parent="pJeg2BePFzrce_1qTwgO-1" source="89xxAsQIkANff5ti2UOI-2" target="xt36zAMbikyAglLqH1Wb-0" edge="1">
                    <mxGeometry relative="1" as="geometry">
                        <mxPoint x="-190" y="-10" as="targetPoint"/>
                    </mxGeometry>
                </mxCell>
                <mxCell id="89xxAsQIkANff5ti2UOI-2" value="alias [&lt;u&gt;alias_id&lt;/u&gt;, name, superhero_id]" style="text;html=1;strokeColor=none;fillColor=none;align=left;verticalAlign=middle;whiteSpace=wrap;rounded=0;" parent="pJeg2BePFzrce_1qTwgO-1" vertex="1">
                    <mxGeometry x="-320" y="-80" width="200" height="20" as="geometry"/>
                </mxCell>
                <mxCell id="89xxAsQIkANff5ti2UOI-7" value="user [ &lt;u&gt;email&lt;/u&gt;, password, name, played, won]" style="text;html=1;strokeColor=none;fillColor=none;align=left;verticalAlign=middle;whiteSpace=wrap;rounded=0;" parent="pJeg2BePFzrce_1qTwgO-1" vertex="1">
                    <mxGeometry x="-320" y="240" width="680" height="30" as="geometry"/>
                </mxCell>
            </root>
        </mxGraphModel>
    </diagram>
</mxfile>